<svg id="Laag_1" data-name="Laag 1" xmlns="http://www.w3.org/2000/svg" xmlns:xlink="http://www.w3.org/1999/xlink" viewBox="0 0 169 199.46"><defs><style>.cls-1{fill:#060;}.cls-1,.cls-2,.cls-3,.cls-4,.cls-5{stroke:#fff;stroke-miterlimit:10;}.cls-2{fill:none;}.cls-3{fill:#fcea10;}.cls-4{fill:#fcea86;}.cls-5{fill:#fff000;}</style><symbol id="logo_web" data-name="logo web" viewBox="0 0 113.89 156.1"><path class="cls-1" d="M57.19,72.16S34.74,37.19.3,62.39C.3,62.39,24.47,49.8,57.19,72.16Z"/><path class="cls-1" d="M56.83,72.37s22-35.26,56.77-10.51C113.6,61.86,89.26,49.59,56.83,72.37Z"/><path class="cls-1" d="M56.73,74.21s4-44.39-38.89-53A168.89,168.89,0,0,1,56.73,74.21Z"/><path class="cls-1" d="M57.38,76.08S52.75,31.75,95.48,22.55A168.89,168.89,0,0,0,57.38,76.08Z"/><path class="cls-1" d="M57.8,75.51s-2.87-67-17-73.37C40.84,2.14,41.29,36.06,57.8,75.51Z"/><path class="cls-1" d="M57.39,75.51S55.54,8.5,69.14,1.13C69.14,1.13,71.08,35,57.39,75.51Z"/><path class="cls-1" d="M57.55,72S43.79,36.34,56,1.13C56,1.13,67.27,18.46,57.55,72Z"/><path class="cls-2" d="M30.22,136.13l.21.19-.1-.2Z"/><path class="cls-2" d="M25.71,120.74a53.39,53.39,0,0,1-.46-7q0-1.1,0-2.18"/><path class="cls-2" d="M26.46,102.52q.49-2.25,1.17-4.4"/><path class="cls-2" d="M90.74,116.62c.64-1,1.19-2,1.65-3-.52-.13-1-.27-1.58-.42,0,.18,0,.36,0,.54C90.83,114.73,90.79,115.68,90.74,116.62Z"/><path class="cls-3" d="M39.73,134.43a70.3,70.3,0,0,0,12.15,7.83,91,91,0,0,0,16.08-6,58,58,0,0,1-13.29-6.11A107,107,0,0,1,39.73,134.43Z"/><path class="cls-3" d="M43.42,121.67A119.58,119.58,0,0,1,29.51,125a95.65,95.65,0,0,0,10.22,9.45,107,107,0,0,0,14.94-4.32A79,79,0,0,1,43.42,121.67Z"/><path class="cls-3" d="M29.51,125c-1,.17-2,.34-3,.49a47.87,47.87,0,0,0,3.77,10.65c3.32-.48,6.45-1,9.41-1.68A95.65,95.65,0,0,1,29.51,125Z"/><path class="cls-4" d="M54.67,130.11A58,58,0,0,0,68,136.22a64.73,64.73,0,0,0,12.17-7.72,50.09,50.09,0,0,1-13.32-4.09A78.66,78.66,0,0,1,54.67,130.11Z"/><path class="cls-4" d="M83,110.36a36.93,36.93,0,0,0,5.54-10.27,61.65,61.65,0,0,1-8.3-4.31,44.13,44.13,0,0,1-7,9A65,65,0,0,0,83,110.36Z"/><path class="cls-3" d="M83,110.36a53.11,53.11,0,0,0,7.78,2.87,52.21,52.21,0,0,0-1.74-12.93l-.51-.21A36.93,36.93,0,0,1,83,110.36Z"/><path class="cls-3" d="M65.14,111.6a64.57,64.57,0,0,0,11,6.19A48.31,48.31,0,0,0,83,110.36a65,65,0,0,1-9.71-5.54A55.27,55.27,0,0,1,65.14,111.6Z"/><path class="cls-3" d="M87.44,121.26a50.07,50.07,0,0,1-11.33-3.48,60.29,60.29,0,0,1-9.29,6.63,50.09,50.09,0,0,0,13.32,4.09A50.28,50.28,0,0,0,87.44,121.26Z"/><path class="cls-3" d="M55,117.32a66.94,66.94,0,0,0,11.85,7.09,60.29,60.29,0,0,0,9.29-6.63,64.57,64.57,0,0,1-11-6.19A70,70,0,0,1,55,117.32Z"/><path class="cls-3" d="M66.81,124.41A66.94,66.94,0,0,1,55,117.32a90.72,90.72,0,0,1-11.53,4.35,79,79,0,0,0,11.24,8.44A78.66,78.66,0,0,0,66.81,124.41Z"/><path class="cls-3" d="M25.71,120.74q.32,2.41.85,4.73c1-.16,2-.32,3-.49C28.25,123.64,27,122.23,25.71,120.74Z"/><path class="cls-3" d="M62.41,95.83a62.61,62.61,0,0,1-8.92,6,87.12,87.12,0,0,0,11.65,9.79,55.27,55.27,0,0,0,8.19-6.78A85.46,85.46,0,0,1,62.41,95.83Z"/><path class="cls-3" d="M41.29,144.68a58.44,58.44,0,0,0,14.55,6.8A97.06,97.06,0,0,0,68,147.35a50.43,50.43,0,0,1-16.13-5.09C48.6,143.17,45.08,144,41.29,144.68Z"/><path class="cls-3" d="M62.41,95.83a85.46,85.46,0,0,0,10.92,9,44.13,44.13,0,0,0,7-9,78.13,78.13,0,0,1-10.2-7.56A50.15,50.15,0,0,1,62.41,95.83Z"/><path class="cls-3" d="M89.08,100.3c-.09-.33-.17-.66-.26-1-.07.24-.15.49-.24.76Z"/><path class="cls-3" d="M62.41,95.83a50.15,50.15,0,0,0,7.67-7.62A104.32,104.32,0,0,1,60,78.06a50.2,50.2,0,0,1-7.21,7.17A115.3,115.3,0,0,0,62.41,95.83Z"/><path class="cls-3" d="M55,117.32a70,70,0,0,0,10.18-5.72,87.12,87.12,0,0,1-11.65-9.79A79.55,79.55,0,0,1,43,106.64,92.33,92.33,0,0,0,55,117.32Z"/><path class="cls-3" d="M43,106.64A101.87,101.87,0,0,1,32.26,110a108.75,108.75,0,0,0,11.16,11.65A90.72,90.72,0,0,0,55,117.32,92.33,92.33,0,0,1,43,106.64Z"/><path class="cls-3" d="M68,147.35a68.82,68.82,0,0,0,16.1-9.27A41.71,41.71,0,0,1,68,136.22a91,91,0,0,1-16.08,6A50.43,50.43,0,0,0,68,147.35Z"/><path class="cls-4" d="M44,91.16a78.46,78.46,0,0,1-10.08,4.76A125.9,125.9,0,0,0,43,106.64a79.55,79.55,0,0,0,10.48-4.84A118.59,118.59,0,0,1,44,91.16Z"/><path class="cls-3" d="M62.41,95.83a115.3,115.3,0,0,1-9.65-10.6A62.07,62.07,0,0,1,44,91.16a118.59,118.59,0,0,0,9.46,10.64A62.61,62.61,0,0,0,62.41,95.83Z"/><path class="cls-3" d="M68,147.35a37.41,37.41,0,0,0,9.5.07A39.13,39.13,0,0,0,84.75,138l-.65.07A68.82,68.82,0,0,1,68,147.35Z"/><path class="cls-4" d="M68,147.35a97.06,97.06,0,0,1-12.17,4.13,43.47,43.47,0,0,0,12.66,1.93,31,31,0,0,0,9-6A37.41,37.41,0,0,1,68,147.35Z"/><path class="cls-5" d="M88.57,100.09c.09-.27.17-.53.24-.76a45.86,45.86,0,0,0-5.19-11.68,30.49,30.49,0,0,1-3.35,8.13A61.65,61.65,0,0,0,88.57,100.09Z"/><path class="cls-3" d="M30.43,136.32a40.82,40.82,0,0,0,6.21,9.13q2.39-.36,4.65-.77A80.61,80.61,0,0,1,30.43,136.32Z"/><path class="cls-3" d="M41.29,144.68q-2.26.41-4.65.77a31.87,31.87,0,0,0,10.92,8q4.38-.86,8.27-1.92A58.44,58.44,0,0,1,41.29,144.68Z"/><path class="cls-3" d="M47.56,153.4a26.11,26.11,0,0,0,20.93,0,43.47,43.47,0,0,1-12.66-1.93Q51.94,152.54,47.56,153.4Z"/><path class="cls-3" d="M90.24,121.66q.37-2.47.51-5a42.73,42.73,0,0,1-3.3,4.65C88.41,121.43,89.34,121.56,90.24,121.66Z"/><path class="cls-3" d="M84.75,138c.15-.27.31-.54.46-.82l-1.11.89Z"/><path class="cls-3" d="M76.1,117.78a50.07,50.07,0,0,0,11.33,3.48,42.73,42.73,0,0,0,3.3-4.65c0-.94.08-1.88.08-2.84,0-.18,0-.36,0-.54A53.11,53.11,0,0,1,83,110.36,48.31,48.31,0,0,1,76.1,117.78Z"/><path class="cls-3" d="M85.21,137.19a46.68,46.68,0,0,0,3.39-8.27,39.37,39.37,0,0,1-8.47-.41A64.73,64.73,0,0,1,68,136.22a41.71,41.71,0,0,0,16.14,1.86l1.11-.89"/><path class="cls-3" d="M88.6,128.92a50.56,50.56,0,0,0,1.63-7.25c-.89-.1-1.83-.23-2.8-.4a50.28,50.28,0,0,1-7.31,7.24,39.37,39.37,0,0,0,8.47.41"/><path class="cls-4" d="M51.88,142.26a70.3,70.3,0,0,1-12.15-7.83c-3,.64-6.09,1.21-9.41,1.68l.1.2a80.61,80.61,0,0,0,10.86,8.36C45.08,144,48.6,143.17,51.88,142.26Z"/><path class="cls-3" d="M63.76,72.6a25.26,25.26,0,0,0-8.66-.47q2.45,3.16,4.87,5.93A42.25,42.25,0,0,0,63.76,72.6Z"/><path class="cls-3" d="M60,78.06q-2.42-2.77-4.87-5.93a27,27,0,0,0-9.75,3.07c2.49,3.67,5,7,7.41,10A50.2,50.2,0,0,0,60,78.06Z"/><path class="cls-4" d="M70.07,88.21a39.28,39.28,0,0,0,5.75-9.56,28.93,28.93,0,0,0-12.06-6A42.25,42.25,0,0,1,60,78.06,104.32,104.32,0,0,0,70.07,88.21Z"/><path class="cls-3" d="M80.27,95.77a30.49,30.49,0,0,0,3.35-8.13,37.47,37.47,0,0,0-7.81-9,39.28,39.28,0,0,1-5.75,9.56A78.13,78.13,0,0,0,80.27,95.77Z"/><path class="cls-3" d="M52.76,85.23c-2.45-3-4.92-6.36-7.41-10a32.51,32.51,0,0,0-8.26,6.4q3.49,5.2,6.94,9.55A62.07,62.07,0,0,0,52.76,85.23Z"/><path class="cls-3" d="M44,91.16q-3.45-4.36-6.94-9.55a40.56,40.56,0,0,0-6.61,9.53q1.74,2.49,3.47,4.78A78.46,78.46,0,0,0,44,91.16Z"/><path class="cls-3" d="M26.46,102.52a52.33,52.33,0,0,0-1.17,9.07q3.65-.72,7-1.57Q29.38,106.55,26.46,102.52Z"/><path class="cls-4" d="M25.71,120.74c1.28,1.49,2.54,2.9,3.8,4.23a119.58,119.58,0,0,0,13.91-3.31A108.75,108.75,0,0,1,32.26,110q-3.32.85-7,1.57,0,1.09,0,2.18A53.39,53.39,0,0,0,25.71,120.74Z"/><path class="cls-3" d="M26.46,102.52q2.92,4,5.8,7.49A101.87,101.87,0,0,0,43,106.64a125.9,125.9,0,0,1-9.06-10.72q-3,1.16-6.31,2.21-.68,2.14-1.17,4.4"/><path class="cls-3" d="M27.63,98.13q3.34-1,6.31-2.21-1.73-2.28-3.47-4.78a46.74,46.74,0,0,0-2.84,7"/></symbol></defs><title>logo_eb</title><g id="Nieuw_symbool" data-name="Nieuw symbool"><use width="113.89" height="156.1" transform="translate(25.4)" xlink:href="#logo_web"/><path d="M15.41,178.81a3.23,3.23,0,0,1,.26-.29.79.79,0,0,1,.26-.17.49.49,0,0,1,.49,0,.92.92,0,0,1,.33.43,1.56,1.56,0,0,1-.19,1.45q-.93,1.49-1.64,2.71t-1.4,2.15a10.11,10.11,0,0,1-1.43,1.61,5.88,5.88,0,0,1-1.74,1.06,2.82,2.82,0,0,1-1.58.24,1.14,1.14,0,0,1-.88-.72l0-.09a.55.55,0,0,1,0-.11,2.14,2.14,0,0,1,0-1,10.4,10.4,0,0,1,.41-1.3q.26-.69.58-1.43T9.43,182a10.79,10.79,0,0,0,.4-1.15,1.25,1.25,0,0,0,0-.75.29.29,0,0,0-.21-.18.81.81,0,0,0-.44.08,2.92,2.92,0,0,0-.93.62,5.66,5.66,0,0,0-.8,1,9.38,9.38,0,0,0-.67,1.22,13.67,13.67,0,0,0-.53,1.32q-.23.67-.37,1.31t-.23,1.16l-.06.46q0,.3-.08.66c0,.24-.05.5-.09.76s-.06.51-.08.73l-.06.61c0,.18,0,.3,0,.38s0,.25,0,.49,0,.52,0,.84l0,1c0,.35,0,.69,0,1s0,.59,0,.83,0,.4,0,.48a4.3,4.3,0,0,1-.05.71,2.65,2.65,0,0,1-.19.64,1.82,1.82,0,0,1-.36.54,1.59,1.59,0,0,1-.57.38,1.51,1.51,0,0,1-.8.12c-.24,0-.42-.22-.56-.55a1.92,1.92,0,0,1-.12-.53,4.32,4.32,0,0,1,0-.57c0-.2,0-.39,0-.58s0-.37,0-.54q.18-1.47.38-3t.36-2.94q.16-1.44.24-2.81a22.45,22.45,0,0,0,0-2.56c0-.17,0-.41,0-.72a8.38,8.38,0,0,1,.08-.94,3.58,3.58,0,0,1,.23-.87.89.89,0,0,1,.48-.52,1.19,1.19,0,0,1,.79-.1.73.73,0,0,1,.44.46,1.91,1.91,0,0,1,.07.24c0,.11,0,.23.07.36s0,.25.05.36a1.42,1.42,0,0,1,0,.26q.29-.59.66-1.21a11.13,11.13,0,0,1,.8-1.17,7.43,7.43,0,0,1,.94-1,3.88,3.88,0,0,1,1.1-.68,3.61,3.61,0,0,1,.84-.23,2.76,2.76,0,0,1,.83,0,1.76,1.76,0,0,1,.7.27,1.22,1.22,0,0,1,.46.58,2.43,2.43,0,0,1,.12,1.18,8,8,0,0,1-.3,1.43,15.64,15.64,0,0,1-.54,1.5c-.21.5-.41,1-.6,1.38l-.47,1.06a1.18,1.18,0,0,0-.16.55.32.32,0,0,0,.21.19.62.62,0,0,0,.41-.06,1.71,1.71,0,0,0,.54-.44,11.52,11.52,0,0,0,.87-1.13q.54-.77,1.34-2T15.41,178.81Z"/><path d="M15.51,176.61a1.41,1.41,0,0,1,.31-.66,1.25,1.25,0,0,1,.51-.35,1.27,1.27,0,0,1,.92,0,1,1,0,0,1,.62.64c0,.08,0,.15,0,.23a.74.74,0,0,1,0,.25c0,.25-.07.47-.1.64s0,.34-.06.48,0,.29,0,.44l-.06.52c0,.24-.06.5-.1.79s-.07.58-.09.87a8.1,8.1,0,0,0,0,.85,2.36,2.36,0,0,0,.12.72q.12.33.32.38a1,1,0,0,0,.52-.06,2.14,2.14,0,0,0,.68-.41,5.1,5.1,0,0,0,.63-.65,7.24,7.24,0,0,0,.57-.8q.27-.43.49-.86t.4-.81q.18-.38.29-.67a.78.78,0,0,1,.42-.41.46.46,0,0,1,.44.07.88.88,0,0,1,.32.45,1.57,1.57,0,0,1,.07.65,1.88,1.88,0,0,1-.26.77q-.41.86-.87,1.68a12.07,12.07,0,0,1-1,1.51,8.12,8.12,0,0,1-1.14,1.21,4.14,4.14,0,0,1-1.32.77,2.47,2.47,0,0,1-1.77.05,2.13,2.13,0,0,1-1.14-1.38,4,4,0,0,1-.23-1.16,9.4,9.4,0,0,1,0-1.19c0-.39.07-.78.13-1.15s.09-.72.11-1.05q0-.18,0-.57c0-.26.06-.52.09-.79Zm.4-3.25a1.82,1.82,0,0,1-.1-.62,1.78,1.78,0,0,1,.51-1.25,1.76,1.76,0,0,1,.7-.43,1.53,1.53,0,0,1,1.11-.08,1,1,0,0,1,.53.59,1.77,1.77,0,0,1,.09.55,1.83,1.83,0,0,1-.1.62,1.61,1.61,0,0,1-.35.57,1.59,1.59,0,0,1-.66.41,2,2,0,0,1-1.17.15A.92.92,0,0,1,15.91,173.36Z"/><path d="M22.23,174.78a2,2,0,0,1,.39-1,1.39,1.39,0,0,1,.67-.49.83.83,0,0,1,.61.05.86.86,0,0,1,.44.57,1.82,1.82,0,0,1,.07.36,1.75,1.75,0,0,1,0,.44,4.07,4.07,0,0,1,.58-1,7.78,7.78,0,0,1,.94-1,8.8,8.8,0,0,1,1.14-.87,4.91,4.91,0,0,1,1.2-.57,2,2,0,0,1,1.22,0,1.28,1.28,0,0,1,.78.94,3.51,3.51,0,0,1,.15,1,7.28,7.28,0,0,1-.06,1.08q-.07.55-.2,1.1t-.27,1l-.26.9q-.12.41-.17.67a.73.73,0,0,0,0,.51.27.27,0,0,0,.12.15.27.27,0,0,0,.23,0l.2-.08a.78.78,0,0,0,.24-.21,12.2,12.2,0,0,0,1.21-1.05q.6-.59,1.13-1.21t1-1.21q.42-.59.69-1a.69.69,0,0,1,.17-.19.55.55,0,0,1,.18-.1.41.41,0,0,1,.38.06.7.7,0,0,1,.25.37,2,2,0,0,1,0,.93,2.86,2.86,0,0,1-.51,1.12l-1,1.34q-.47.61-1,1.17a14.09,14.09,0,0,1-1.13,1.1,13.39,13.39,0,0,1-1.5,1.11,6.29,6.29,0,0,1-.56.33,3,3,0,0,1-.49.2,1.27,1.27,0,0,1-1.09-.07,1.61,1.61,0,0,1-.63-.93l0-.17,0-.19a2.91,2.91,0,0,1-.05-.91,9.71,9.71,0,0,1,.15-1.08c.07-.38.16-.75.25-1.13s.18-.74.26-1.07.14-.63.18-.89a1.38,1.38,0,0,0,0-.6.5.5,0,0,0-.21-.28.41.41,0,0,0-.36,0,2.91,2.91,0,0,0-1.39.95,7.41,7.41,0,0,0-1,1.58,14.12,14.12,0,0,0-.72,1.82q-.29.94-.51,1.67a7.66,7.66,0,0,0-.19,1c0,.36-.1.69-.17,1a3,3,0,0,1-.31.83,1.05,1.05,0,0,1-.63.49,1,1,0,0,1-.78-.06,1,1,0,0,1-.46-.59,2.38,2.38,0,0,1,0-.74q0-.53.12-1.23t.22-1.53c.09-.55.17-1.09.26-1.63s.17-1.05.26-1.53S22.18,175.11,22.23,174.78Z"/><path d="M37.89,168.76a2.3,2.3,0,0,1,1.72.1,1.91,1.91,0,0,1,.88,1.27,2.61,2.61,0,0,1,0,1.18,4,4,0,0,1-.68,1.43,10.72,10.72,0,0,1-1.55,1.69,22.85,22.85,0,0,1-2.59,2,.84.84,0,0,0,.54.47,1.7,1.7,0,0,0,.94,0,5.33,5.33,0,0,0,1.22-.49,10.64,10.64,0,0,0,1.23-.77q.59-.43,1.15-.9t1-.87l.73-.69c.19-.19.32-.31.39-.37a.54.54,0,0,1,.19-.14l.17-.06a.45.45,0,0,1,.27,0,.72.72,0,0,1,.21.12.57.57,0,0,1,.15.18.86.86,0,0,1,.07.18,1.87,1.87,0,0,1,0,.28.83.83,0,0,1-.1.41c0,.05-.15.2-.34.45s-.46.54-.78.89-.7.73-1.14,1.14a16.09,16.09,0,0,1-1.42,1.19,13.39,13.39,0,0,1-1.63,1,7.7,7.7,0,0,1-1.77.69,3.11,3.11,0,0,1-2.65-.47,3.56,3.56,0,0,1-.92-1,4.32,4.32,0,0,1-.56-1.29,3.88,3.88,0,0,1-.08-1.25,6.28,6.28,0,0,1,.3-1.46,8.26,8.26,0,0,1,.68-1.54,7.57,7.57,0,0,1,1.06-1.44,7.26,7.26,0,0,1,1.44-1.18A6.35,6.35,0,0,1,37.89,168.76Zm0,1.86-.12,0-.12,0a2.29,2.29,0,0,0-.86.42,3.17,3.17,0,0,0-.65.7,4,4,0,0,0-.45.86,9.42,9.42,0,0,0-.3.9,7.07,7.07,0,0,0-.18.83c0,.26-.06.48-.07.65.26-.23.53-.48.8-.75l.77-.78.62-.67.37-.4a2.78,2.78,0,0,0,.63-.86,1,1,0,0,0,.08-.59.4.4,0,0,0-.2-.27A.54.54,0,0,0,37.87,170.62Z"/><path d="M56.75,170.7l-.5.72q-.31.46-.73,1c-.27.37-.57.73-.89,1.11a12.46,12.46,0,0,1-1,1.05,8,8,0,0,1-1,.84,2.89,2.89,0,0,1-1,.45,1.54,1.54,0,0,1-.82,0,1.74,1.74,0,0,1-.64-.39,2.22,2.22,0,0,1-.46-.63,3.12,3.12,0,0,1-.26-.78,3.73,3.73,0,0,1-.07-.54,2.31,2.31,0,0,1,0-.52q-.3.62-.7,1.29a9.16,9.16,0,0,1-.9,1.25,6.41,6.41,0,0,1-1.08,1,3.12,3.12,0,0,1-1.25.56,2.87,2.87,0,0,1-.81,0,2.69,2.69,0,0,1-.94-.27,2.58,2.58,0,0,1-.83-.66,2.43,2.43,0,0,1-.51-1.13,6,6,0,0,1-.08-1.28,9,9,0,0,1,.2-1.61,9.41,9.41,0,0,1,.54-1.72,6.92,6.92,0,0,1,.94-1.61,6.06,6.06,0,0,1,1.4-1.3,5.22,5.22,0,0,1,1.93-.77,3.29,3.29,0,0,1,1-.06,4.26,4.26,0,0,1,.79.16,3.63,3.63,0,0,1,.69.33l.41-.31.38-.24a1.24,1.24,0,0,1,.36-.14,1.21,1.21,0,0,1,.86.11.78.78,0,0,1,.43.53.61.61,0,0,1,0,.14c0,.17,0,.39-.08.65l-.14.88c-.05.32-.11.66-.16,1s-.09.69-.13,1-.05.65-.06.93a3.5,3.5,0,0,0,0,.73,1.39,1.39,0,0,0,.25.61.47.47,0,0,0,.49.16,1.16,1.16,0,0,0,.44-.21,4.48,4.48,0,0,0,.51-.44c.18-.18.37-.37.55-.59s.37-.44.54-.66q.6-.78,1.26-1.76a.66.66,0,0,1,.37-.25.53.53,0,0,1,.48.16,1,1,0,0,1,.29.52A.82.82,0,0,1,56.75,170.7Zm-9.66-1.51a2.51,2.51,0,0,0-1.12.54,3.71,3.71,0,0,0-.86,1,4.09,4.09,0,0,0-.48,1.26,3.26,3.26,0,0,0,0,1.3,4.72,4.72,0,0,0,.14.52,1.51,1.51,0,0,0,.25.47,1.08,1.08,0,0,0,.41.32,1,1,0,0,0,.61,0,1.3,1.3,0,0,0,.62-.38,5.76,5.76,0,0,0,.67-.79,10.64,10.64,0,0,0,.63-1q.3-.54.52-1.05a8.67,8.67,0,0,0,.35-.9,1.31,1.31,0,0,0,.09-.56.68.68,0,0,0-.26-.41,1.59,1.59,0,0,0-.48-.26,2.19,2.19,0,0,0-.57-.11A2.09,2.09,0,0,0,47.09,169.19Z"/><path d="M69,166.86l.32-.21a.81.81,0,0,1,.29-.1.49.49,0,0,1,.46.16.92.92,0,0,1,.21.5,1.53,1.53,0,0,1-.09.71,1.51,1.51,0,0,1-.46.65q-1.27,1.22-2.26,2.22t-1.89,1.74a10.1,10.1,0,0,1-1.79,1.2,5.91,5.91,0,0,1-2,.6,2.82,2.82,0,0,1-1.59-.16,1.15,1.15,0,0,1-.68-.92v-.1a.53.53,0,0,1,0-.11,2.13,2.13,0,0,1,.29-.94,10.71,10.71,0,0,1,.71-1.16q.43-.61.92-1.24t.9-1.19a10.65,10.65,0,0,0,.67-1,1.25,1.25,0,0,0,.23-.71.28.28,0,0,0-.16-.23.79.79,0,0,0-.45,0,2.92,2.92,0,0,0-1.05.37,5.59,5.59,0,0,0-1,.75,9.34,9.34,0,0,0-.95,1,13.41,13.41,0,0,0-.84,1.15q-.38.59-.69,1.17T57.65,172l-.17.43-.24.62-.27.71-.26.69-.21.58-.13.35c0,.08-.09.24-.16.47l-.25.8-.29,1-.29,1-.24.79q-.1.34-.12.46a4.25,4.25,0,0,1-.22.67,2.58,2.58,0,0,1-.34.58,1.83,1.83,0,0,1-.48.43,1.58,1.58,0,0,1-.64.22,1.51,1.51,0,0,1-.81-.08.78.78,0,0,1-.4-.68,1.89,1.89,0,0,1,0-.54,4.21,4.21,0,0,1,.13-.56c.06-.19.11-.37.17-.55s.12-.35.17-.51q.54-1.38,1.1-2.78t1.07-2.75q.51-1.36.92-2.66a22.41,22.41,0,0,0,.65-2.48l.2-.7a8.51,8.51,0,0,1,.31-.89,3.59,3.59,0,0,1,.44-.79.89.89,0,0,1,.6-.39,1.19,1.19,0,0,1,.79.1.73.73,0,0,1,.31.56,1.89,1.89,0,0,1,0,.25c0,.11,0,.24,0,.36s0,.25,0,.37a1.56,1.56,0,0,1-.05.26q.43-.5.93-1a10.92,10.92,0,0,1,1.07-.94,7.17,7.17,0,0,1,1.16-.73,3.82,3.82,0,0,1,1.23-.39,3.63,3.63,0,0,1,.87,0,2.77,2.77,0,0,1,.8.2,1.74,1.74,0,0,1,.61.43,1.21,1.21,0,0,1,.3.67,2.43,2.43,0,0,1-.17,1.17A8,8,0,0,1,65,168a15.38,15.38,0,0,1-.89,1.32q-.49.65-.92,1.19l-.72.91a1.19,1.19,0,0,0-.29.49.31.31,0,0,0,.15.24.63.63,0,0,0,.41,0,1.75,1.75,0,0,0,.63-.29,11.48,11.48,0,0,0,1.12-.88q.71-.61,1.8-1.63T69,166.86Z"/><path d="M82.17,166.12l.33-.19a.8.8,0,0,1,.3-.09.49.49,0,0,1,.45.19.91.91,0,0,1,.18.52,1.5,1.5,0,0,1-.13.7,1.53,1.53,0,0,1-.5.62q-1.34,1.13-2.4,2.07t-2,1.62a10.13,10.13,0,0,1-1.86,1.08,5.93,5.93,0,0,1-2,.47,2.8,2.8,0,0,1-1.58-.26,1.14,1.14,0,0,1-.62-1v-.1a.57.57,0,0,1,0-.11,2.12,2.12,0,0,1,.35-.92,10.39,10.39,0,0,1,.79-1.11q.47-.58,1-1.18t1-1.13a10.36,10.36,0,0,0,.74-1,1.24,1.24,0,0,0,.27-.7.29.29,0,0,0-.15-.24.8.8,0,0,0-.44-.06,2.92,2.92,0,0,0-1.08.3,5.64,5.64,0,0,0-1.07.69,9.33,9.33,0,0,0-1,.95,13.39,13.39,0,0,0-.91,1.09q-.42.56-.76,1.13t-.57,1l-.2.42-.28.61-.32.69-.31.67-.25.56-.16.34c0,.08-.1.23-.19.46l-.3.78-.35.94-.35.94-.29.78q-.12.33-.16.45a4.36,4.36,0,0,1-.27.66,2.59,2.59,0,0,1-.37.55,1.84,1.84,0,0,1-.5.4,1.57,1.57,0,0,1-.66.18,1.5,1.5,0,0,1-.8-.13.77.77,0,0,1-.36-.7,1.92,1.92,0,0,1,0-.54,4.18,4.18,0,0,1,.16-.55c.07-.18.14-.36.21-.54l.2-.5q.63-1.35,1.28-2.7t1.25-2.68q.59-1.32,1.09-2.6a22.61,22.61,0,0,0,.81-2.43l.25-.68a8.1,8.1,0,0,1,.37-.87,3.55,3.55,0,0,1,.49-.76.89.89,0,0,1,.62-.35,1.18,1.18,0,0,1,.78.15.73.73,0,0,1,.28.57,1.93,1.93,0,0,1,0,.25c0,.11,0,.23,0,.36s0,.25-.06.36a1.37,1.37,0,0,1-.07.25q.46-.47,1-.95a11,11,0,0,1,1.12-.86,7.31,7.31,0,0,1,1.2-.66,3.87,3.87,0,0,1,1.25-.31,3.69,3.69,0,0,1,.87,0,2.77,2.77,0,0,1,.79.25,1.75,1.75,0,0,1,.58.47,1.21,1.21,0,0,1,.26.69,2.42,2.42,0,0,1-.25,1.16,8,8,0,0,1-.73,1.27,15.37,15.37,0,0,1-1,1.26q-.53.62-1,1.12l-.78.86a1.21,1.21,0,0,0-.32.47.31.31,0,0,0,.14.25.62.62,0,0,0,.4.07,1.73,1.73,0,0,0,.65-.25,11.63,11.63,0,0,0,1.17-.8q.75-.57,1.9-1.51T82.17,166.12Z"/><path d="M83.54,168.65a6.65,6.65,0,0,0-.27.7,2.2,2.2,0,0,0-.13.71.55.55,0,0,0,.08.31.34.34,0,0,0,.31.11,2,2,0,0,0,.69-.17,7.42,7.42,0,0,0,.89-.44q.48-.27,1-.63t1-.73q.51-.38,1-.76l.83-.7a.62.62,0,0,1,.25-.13,1,1,0,0,1,.25,0,.57.57,0,0,1,.44.17.67.67,0,0,1,.18.48,1.29,1.29,0,0,1-.18.62,2.06,2.06,0,0,1-.64.67q-.84.78-1.69,1.49a17.21,17.21,0,0,1-1.7,1.24,9.5,9.5,0,0,1-1.68.87,4.7,4.7,0,0,1-1.63.34,2.49,2.49,0,0,1-.91-.13,1.49,1.49,0,0,1-.59-.38,1.44,1.44,0,0,1-.32-.58,2.74,2.74,0,0,1-.1-.71,4.73,4.73,0,0,1,.17-1.31,8.05,8.05,0,0,1,.44-1.24q.45-1,.91-2l.84-1.85,3.88-8.46a1.47,1.47,0,0,1,.63-.73,1.76,1.76,0,0,1,.81-.22,1.34,1.34,0,0,1,.75.21.79.79,0,0,1,.35.71,1.24,1.24,0,0,1-.1.5,5.78,5.78,0,0,1-.28.56q-.32.62-.76,1.51l-.95,1.94q-.51,1-1,2.18l-1,2.21-.95,2Z"/><path d="M94.42,163a2.29,2.29,0,0,1,1.63.56,1.91,1.91,0,0,1,.51,1.46,2.62,2.62,0,0,1-.32,1.14,4,4,0,0,1-1,1.19,10.74,10.74,0,0,1-1.95,1.21,22.85,22.85,0,0,1-3,1.22.85.85,0,0,0,.39.6,1.71,1.71,0,0,0,.91.24,5.31,5.31,0,0,0,1.31-.14,10.79,10.79,0,0,0,1.39-.41q.69-.25,1.35-.56t1.19-.58l.89-.47.48-.25a.53.53,0,0,1,.22-.09h.18a.45.45,0,0,1,.26.08.72.72,0,0,1,.17.17.57.57,0,0,1,.09.21.81.81,0,0,1,0,.19,1.77,1.77,0,0,1,0,.28.83.83,0,0,1-.21.37l-.45.34q-.39.28-1,.65t-1.4.79a16.37,16.37,0,0,1-1.69.76,13.27,13.27,0,0,1-1.85.56,7.61,7.61,0,0,1-1.89.19,3.11,3.11,0,0,1-2.43-1.17,3.56,3.56,0,0,1-.63-1.19,4.33,4.33,0,0,1-.19-1.4,3.9,3.9,0,0,1,.26-1.22,6.37,6.37,0,0,1,.68-1.33,8.34,8.34,0,0,1,1.07-1.29,7.59,7.59,0,0,1,1.41-1.1,7.23,7.23,0,0,1,1.71-.75A6.31,6.31,0,0,1,94.42,163Zm-.52,1.78-.12,0h-.12a2.27,2.27,0,0,0-.95.17,3.17,3.17,0,0,0-.81.49,4,4,0,0,0-.67.71,9.12,9.12,0,0,0-.53.79,6.9,6.9,0,0,0-.4.75c-.11.24-.19.44-.25.61q.47-.22,1-.51l.95-.55.77-.47.46-.29a2.79,2.79,0,0,0,.84-.66,1,1,0,0,0,.24-.55.41.41,0,0,0-.12-.32A.55.55,0,0,0,93.9,164.83Z"/><path d="M111.94,171.4a.14.14,0,0,0,0,.06.14.14,0,0,1,0,.06,1.14,1.14,0,0,0,.06.5.4.4,0,0,0,.35.3.37.37,0,0,0,.16,0,6.25,6.25,0,0,0,1.6-.52,15.44,15.44,0,0,0,1.6-.87,16.46,16.46,0,0,0,1.45-1q.67-.52,1.12-.94a.53.53,0,0,1,.43-.17.45.45,0,0,1,.33.22.75.75,0,0,1,.09.51,1.59,1.59,0,0,1-.21.56,3,3,0,0,1-.54.67q-.87.75-1.78,1.43a16.32,16.32,0,0,1-1.81,1.18,9,9,0,0,1-1.76.77,4,4,0,0,1-1.65.17,2.09,2.09,0,0,1-1.45-.71,2.16,2.16,0,0,1-.36-1.67l0-.13a.73.73,0,0,1,0-.13,4.14,4.14,0,0,1-.89.9,5.31,5.31,0,0,1-1.13.64,5.57,5.57,0,0,1-1.23.35,4.25,4.25,0,0,1-1.19,0,3,3,0,0,1-.88-.23,1.77,1.77,0,0,1-.66-.5,1.93,1.93,0,0,1-.38-.78,3.05,3.05,0,0,1,0-1.08,6.24,6.24,0,0,1,.58-2,7.59,7.59,0,0,1,1.12-1.69,8.36,8.36,0,0,1,1.47-1.32A9.54,9.54,0,0,1,108,165a7.71,7.71,0,0,1,1.64-.52,4.75,4.75,0,0,1,1.45-.08,3.11,3.11,0,0,1,1.26.4,1.88,1.88,0,0,1,.45.41l.13-.21.3-.51.18-.31c0-.08.13-.25.29-.52l.54-1,.67-1.17.67-1.18.53-1,.27-.51a3.35,3.35,0,0,1,.32-.6,2.34,2.34,0,0,1,.44-.49,1.73,1.73,0,0,1,.55-.3,1.56,1.56,0,0,1,.67-.06,1.51,1.51,0,0,1,.8.31.91.91,0,0,1,.23.86,2.05,2.05,0,0,1-.12.5c-.06.17-.13.33-.21.49l-.24.46-.23.42q-.81,1.22-1.71,2.65t-1.79,2.89q-.89,1.45-1.71,2.84T111.94,171.4Zm.2-5.1a5.52,5.52,0,0,0-1.7.14,5.94,5.94,0,0,0-3.54,2.26,5,5,0,0,0-.91,2.15q-.06.52.39.57a2.54,2.54,0,0,0,1.08-.1,4.17,4.17,0,0,0,1-.5,6.25,6.25,0,0,0,1-.77,11.32,11.32,0,0,0,.85-.94q.4-.49.73-1t.58-.92l.23-.38Z"/><path d="M123.65,166.38a2.3,2.3,0,0,1,1.53.8,1.91,1.91,0,0,1,.28,1.52,2.62,2.62,0,0,1-.49,1.08,4,4,0,0,1-1.2,1,10.66,10.66,0,0,1-2.1.91,22.66,22.66,0,0,1-3.18.76.85.85,0,0,0,.3.65,1.72,1.72,0,0,0,.86.37,5.34,5.34,0,0,0,1.32.05,10.86,10.86,0,0,0,1.43-.2q.72-.15,1.41-.35c.46-.13.88-.26,1.26-.39l.95-.33.51-.18a.52.52,0,0,1,.23-.05l.18,0a.46.46,0,0,1,.25.12.73.73,0,0,1,.15.2.58.58,0,0,1,.06.22.82.82,0,0,1,0,.19,1.76,1.76,0,0,1-.07.27.83.83,0,0,1-.26.33l-.5.27q-.42.22-1.08.5t-1.51.57a16.41,16.41,0,0,1-1.78.5,13.42,13.42,0,0,1-1.91.28,7.7,7.7,0,0,1-1.89-.09,3.11,3.11,0,0,1-2.23-1.52,3.53,3.53,0,0,1-.44-1.27,4.28,4.28,0,0,1,0-1.41,3.88,3.88,0,0,1,.44-1.17,6.33,6.33,0,0,1,.87-1.21,8.31,8.31,0,0,1,1.25-1.12,7.53,7.53,0,0,1,1.56-.88,7.3,7.3,0,0,1,1.8-.49A6.33,6.33,0,0,1,123.65,166.38Zm-.78,1.69-.12,0-.12,0a2.3,2.3,0,0,0-1,0,3.18,3.18,0,0,0-.88.37,4,4,0,0,0-.76.6q-.35.35-.64.7a7.21,7.21,0,0,0-.5.68q-.21.33-.33.56.5-.15,1-.36l1-.4.84-.36.5-.21a2.79,2.79,0,0,0,.93-.53,1,1,0,0,0,.32-.51.4.4,0,0,0-.07-.33A.54.54,0,0,0,122.87,168.07Z"/><path d="M130.48,170a7.81,7.81,0,0,1,1.2,1.24,6.82,6.82,0,0,1,.81,1.33,5,5,0,0,1,.4,1.32,3.38,3.38,0,0,1,0,1.22,2.21,2.21,0,0,1-.71,1.21,3.67,3.67,0,0,1-1.32.73,5.79,5.79,0,0,1-1.69.26,7.67,7.67,0,0,1-1.81-.18,5.92,5.92,0,0,1-1.27-.44A4.22,4.22,0,0,1,125,176a3.23,3.23,0,0,1-.72-1,3,3,0,0,1-.28-1.25.7.7,0,0,1,0-.17.83.83,0,0,1,.38-.54.77.77,0,0,1,.6-.13,1.21,1.21,0,0,1,.31.12.43.43,0,0,1,.21.29,1.85,1.85,0,0,0,.35.65,3.36,3.36,0,0,0,.59.56,4.2,4.2,0,0,0,.74.45,3.82,3.82,0,0,0,.8.28,4.08,4.08,0,0,0,.81.1,2.29,2.29,0,0,0,.73-.09,1.36,1.36,0,0,0,.55-.32,1.13,1.13,0,0,0,.31-.58,2.51,2.51,0,0,0,0-1.26,4.4,4.4,0,0,0-.54-1.18,7.44,7.44,0,0,0-.88-1.1c-.34-.36-.68-.7-1-1a.9.9,0,0,1-.14-.27.67.67,0,0,1,0-.4.37.37,0,0,1,.13-.22,7,7,0,0,1,.6-.44,5.43,5.43,0,0,1,.7-.38,3,3,0,0,1,.76-.23,2,2,0,0,1,.78,0,1.87,1.87,0,0,1,.51.19,1.45,1.45,0,0,1,.37.29,1,1,0,0,1,.21.33.52.52,0,0,1,0,.29.74.74,0,0,1-.17.32,1.54,1.54,0,0,1-.31.26,3.9,3.9,0,0,1-.4.23Z"/><path d="M136.75,170.53a1.4,1.4,0,0,1,.63-.37,1.29,1.29,0,0,1,1.37.53,1,1,0,0,1,.15.88l-.09.22a.72.72,0,0,1-.14.2l-.44.48-.32.37-.29.33-.34.4-.53.6c-.19.21-.38.44-.56.67a8,8,0,0,0-.5.69,2.32,2.32,0,0,0-.3.66.5.5,0,0,0,.06.49,1,1,0,0,0,.47.24,2.13,2.13,0,0,0,.79,0,5.26,5.26,0,0,0,.89-.18,7.24,7.24,0,0,0,.92-.34q.47-.21.89-.43l.79-.44q.36-.21.62-.39a.79.79,0,0,1,.58-.1.46.46,0,0,1,.33.3.88.88,0,0,1,0,.55,1.57,1.57,0,0,1-.31.58,1.89,1.89,0,0,1-.64.49q-.82.48-1.66.9a12.1,12.1,0,0,1-1.67.69,8.1,8.1,0,0,1-1.62.36,4.11,4.11,0,0,1-1.52-.1,2.47,2.47,0,0,1-1.5-1,2.12,2.12,0,0,1-.17-1.79,4,4,0,0,1,.46-1.09,9.72,9.72,0,0,1,.68-1q.37-.46.75-.88t.68-.81l.36-.45.52-.6Zm2.15-2.46a1.86,1.86,0,0,1,.27-.57,1.78,1.78,0,0,1,1.13-.75,1.77,1.77,0,0,1,.82,0,1.54,1.54,0,0,1,1,.56,1,1,0,0,1,.11.79,1.74,1.74,0,0,1-.24.5,1.79,1.79,0,0,1-.43.46,1.56,1.56,0,0,1-1.38.25,2,2,0,0,1-1.05-.54A.92.92,0,0,1,138.9,168.07Z"/><path d="M147.64,172.52a3.3,3.3,0,0,1,.93.44,4.31,4.31,0,0,1,.61.52,3.67,3.67,0,0,1,.45.62l.45-.09a3.09,3.09,0,0,1,.44,0,1.47,1.47,0,0,1,.45.07,1.5,1.5,0,0,1,.79.49.68.68,0,0,1,.14.63.71.71,0,0,1-.19.3L147,180l.31-.14q1.76-.39,2.88-.58t1.76-.25a6.31,6.31,0,0,1,.91,0l.33,0a.55.55,0,0,1,.38.36.93.93,0,0,1,0,.59,1.57,1.57,0,0,1-.44.67,1.23,1.23,0,0,1-.81.33q-.66.11-1.52.2t-1.81.23q-.95.14-1.93.37a12.53,12.53,0,0,0-1.89.6L141.35,186c-.35.41-.65.74-.91,1a3.82,3.82,0,0,1-.71.55,1.42,1.42,0,0,1-.61.21,1.71,1.71,0,0,1-.61-.08,1,1,0,0,1-.67-.58,1.26,1.26,0,0,1,0-.89,3.61,3.61,0,0,1,.6-1.08,9.81,9.81,0,0,1,1.12-1.21,17.26,17.26,0,0,1,1.56-1.27q.88-.64,1.91-1.28l2.18-1.47a8.47,8.47,0,0,1-1.18.45,6.61,6.61,0,0,1-1.06.22,4.65,4.65,0,0,1-.89,0,3,3,0,0,1-.68-.12,2,2,0,0,1-.86-.52,2.36,2.36,0,0,1-.54-.87,3.32,3.32,0,0,1-.18-1.12,4.2,4.2,0,0,1,.21-1.27,5.84,5.84,0,0,1,1.31-2.3,6.54,6.54,0,0,1,4.2-2.06A5.42,5.42,0,0,1,147.64,172.52Zm-1.17,2a2.57,2.57,0,0,0-1.24-.07,3.69,3.69,0,0,0-1.23.46,3.91,3.91,0,0,0-1,.88,3.52,3.52,0,0,0-.65,1.2,3.33,3.33,0,0,0-.1.44,1.3,1.3,0,0,0,0,.47.92.92,0,0,0,.21.43,1.15,1.15,0,0,0,.53.31,1.28,1.28,0,0,0,.7,0,5.66,5.66,0,0,0,.93-.35,9.44,9.44,0,0,0,1-.55q.5-.31.93-.63a7,7,0,0,0,.71-.59,1.24,1.24,0,0,0,.33-.43.82.82,0,0,0,0-.53,1.39,1.39,0,0,0-.27-.46,1.92,1.92,0,0,0-.4-.35A1.78,1.78,0,0,0,146.48,174.56Z"/><path d="M155.48,176.86a2,2,0,0,1,.92-.54,1.38,1.38,0,0,1,.83,0,.83.83,0,0,1,.45.42.86.86,0,0,1,0,.71,1.85,1.85,0,0,1-.17.33,1.78,1.78,0,0,1-.29.34,4,4,0,0,1,1-.4,7.67,7.67,0,0,1,1.37-.21,8.65,8.65,0,0,1,1.44,0,4.84,4.84,0,0,1,1.3.29,2,2,0,0,1,1,.73,1.28,1.28,0,0,1,0,1.22,3.51,3.51,0,0,1-.49.86,7.37,7.37,0,0,1-.72.81c-.26.26-.54.51-.84.74s-.58.46-.85.66l-.76.55-.55.42a.73.73,0,0,0-.33.39.27.27,0,0,0,0,.19.26.26,0,0,0,.17.15l.21.06a.8.8,0,0,0,.32,0,12.33,12.33,0,0,0,1.6-.08q.84-.1,1.64-.26t1.49-.36q.69-.2,1.18-.39a.68.68,0,0,1,.24,0,.53.53,0,0,1,.2,0,.41.41,0,0,1,.27.28.69.69,0,0,1,0,.45,2,2,0,0,1-.56.75,2.88,2.88,0,0,1-1.09.57l-1.64.42q-.75.19-1.5.31a14.49,14.49,0,0,1-1.57.17,13.75,13.75,0,0,1-1.86-.05,6,6,0,0,1-.64-.08,2.92,2.92,0,0,1-.51-.14,1.27,1.27,0,0,1-.82-.73,1.6,1.6,0,0,1,.08-1.12l.07-.16.09-.17a3,3,0,0,1,.52-.75,9.93,9.93,0,0,1,.79-.76c.29-.25.59-.5.9-.74l.87-.69c.27-.22.5-.42.69-.59a1.38,1.38,0,0,0,.37-.47.5.5,0,0,0,0-.35.41.41,0,0,0-.27-.25,2.9,2.9,0,0,0-1.68-.11,7.42,7.42,0,0,0-1.76.63,14.36,14.36,0,0,0-1.69,1l-1.43,1a7.87,7.87,0,0,0-.78.68c-.25.25-.5.48-.75.69a2.92,2.92,0,0,1-.75.46,1.05,1.05,0,0,1-.8,0,1,1,0,0,1-.58-.53,1,1,0,0,1,0-.75,2.35,2.35,0,0,1,.43-.6q.35-.4.86-.9t1.11-1.07l1.21-1.12,1.15-1Z"/></g></svg>